<?xml version="1.0" encoding="utf-8"?>
<!-- Generator: Adobe Illustrator 25.2.3, SVG Export Plug-In . SVG Version: 6.00 Build 0)  -->
<svg version="1.1" id="Layer_1" xmlns="http://www.w3.org/2000/svg" xmlns:xlink="http://www.w3.org/1999/xlink" x="0px" y="0px"
	 viewBox="0 0 80.18 86.04" style="enable-background:new 0 0 80.18 86.04;" xml:space="preserve">
<style type="text/css">
	.st0{fill:url(#SVGID_1_);}
</style>
<linearGradient id="SVGID_1_" gradientUnits="userSpaceOnUse" x1="4.2668" y1="42.3423" x2="75.9133" y2="42.3423" gradientTransform="matrix(3.267949e-07 1 -1 3.267949e-07 82.4324 2.2522)">
	<stop  offset="0" style="stop-color:#047F9B"/>
	<stop  offset="0.0547" style="stop-color:#0F839E"/>
	<stop  offset="0.1414" style="stop-color:#238DA4"/>
	<stop  offset="0.2493" style="stop-color:#479FB0"/>
	<stop  offset="0.3741" style="stop-color:#79B8C2"/>
	<stop  offset="0.5" style="stop-color:#B4D7DB"/>
	<stop  offset="0.5176" style="stop-color:#A8CDD2"/>
	<stop  offset="0.6068" style="stop-color:#73A5AF"/>
	<stop  offset="0.6947" style="stop-color:#498796"/>
	<stop  offset="0.7795" style="stop-color:#2B7285"/>
	<stop  offset="0.8604" style="stop-color:#17647B"/>
	<stop  offset="0.9357" style="stop-color:#0B5C75"/>
	<stop  offset="1" style="stop-color:#055A73"/>
</linearGradient>
<path class="st0" d="M71.29,26.02l0-1.58l-1.37-0.79l-1.11,0.64L50.15,13.46l0-1.28l-1.37-0.79l-1.11,0.64l-6.39-3.7l0-1.01
	l-1.37-0.79l-1.37,0.79l0,1.28l-8.26,4.75l-1.1-0.64l-1.37,0.79l0,1.28l-16.11,9.26l-1.1-0.64l-1.37,0.79l0,1.58l0.82,0.48
	l-0.04,19.19l-1.11,0.64l0,1.58l1.1,0.64L10,58.1l-1.11,0.64l0,1.58l1.37,0.79l1.11-0.64L32.7,72.84l0,1.1l1.37,0.79l0.96-0.55
	L39,76.49l0,0.88l1.37,0.79l1.37-0.79l0-1.28l5.8-3.33l1.1,0.64L50,72.62l0-1.28l11.1-6.38l1.1,0.64l1.37-0.79l0-1.28l4.94-2.84
	l1.1,0.64l1.37-0.79l0-1.58l-0.88-0.51l0.03-17.28l0.4-0.23l0-1.58l-0.4-0.23l0.02-12.49L71.29,26.02z M49.88,13.91l18.67,10.82
	l0,0.16l-16.21-0.8l0-0.73l-1.37-0.79l-0.24,0.14l-1.47-8.45L49.88,13.91z M31.37,61l-0.94-10.28L31.67,50l0-0.02l9.2,6.04l0,0.52
	l-8.42,5.15l0-0.06L31.37,61z M11.44,45.92l7.78-11.5l0.51,0.3l10.13,13.17l-0.92,0.53l0,0.42l-17.29-2.38l0-0.41L11.44,45.92z
	 M20.26,34.63l0.56-0.32l12.88,1.54l0,1.56l0.17,0.1l-3.05,10.42l-0.45-0.26L20.26,34.63z M33.97,26.01l1.39,9.19l-0.28-0.16
	l-0.89,0.51L21.3,34.01l0-0.98l12.05-7.41l0,0.02L33.97,26.01z M36.44,36.13l0-0.26l13.59-10.69l0.94,0.55l0.23-0.13l2.63,10.51
	l-0.46,0.26l0,0.35L36.44,36.13z M52.38,37.41L31.34,48.22l-0.05-0.03l3.05-10.42l0.73,0.42l1.37-0.79l0-0.74L52.38,37.41z
	 M49.61,24.85L35.98,35.56l-0.17-0.1l-1.39-9.19l0.28,0.16l1.37-0.79l0-0.52l13.53-0.59L49.61,24.85z M31.67,49.4l0-0.75l21.7-11.08
	l0,0.38l0.2,0.12L42.65,55.02l-0.4-0.23l-1.23,0.71L31.67,49.4z M54.03,38.33l0.71,0.41l1.37-0.79l0-0.13l11.99,1.39l-0.27,0.16
	l0,1.28l-5.22,7.92l-1.1-0.64l-1.37,0.79l0,1.28l-16.78,5.44l-0.24-0.14L54.03,38.33z M54.74,35.58l-0.46,0.26l-2.63-10.51
	l0.68-0.39l0-0.32l16.21,0.8l0,0.29L55.43,35.98L54.74,35.58z M48.78,14.55L48.78,14.55l1.48,8.44l-0.65,0.37l0,0.65l-13.53,0.59
	l0-0.53l-0.29-0.17l12.38-9.71L48.78,14.55z M30.56,13.79l8.26-4.75l1.1,0.64l1.33-0.77l6.16,3.57l0,0.32l-16.86,1.12L30.56,13.79z
	 M30.55,15.06l0-0.62l16.86-1.12l0,0.43l0.29,0.17l-12.38,9.71l-0.61-0.36l-0.82,0.47l-3.4-8.65L30.55,15.06z M29.19,15.85
	l0.82-0.47l3.4,8.65l-0.07,0.04l0,1L21.3,32.47l0-0.02l-0.83-0.48l8.65-16.16L29.19,15.85z M11.98,24.47l16.11-9.26l0.56,0.33
	L19.99,31.7l-0.06-0.03l-1.37,0.79l0,0.16l-6.59-7.34L11.98,24.47z M10.58,26.52l0.02,0.01l1.28-0.74l6.68,7.36l0,0.88l0.2,0.12
	l-7.78,11.5l-0.43-0.25L10.58,26.52z M11.12,58.44l-0.6-0.35l0.02-9.84l1.11-0.64l0-0.65l17.29,2.38l0,0.35L11.12,58.44z
	 M29.22,50.15l0.68,0.39l0.94,10.43l-1.12,0.65l0,0.48l-18.09-2.79l0-0.57l-0.03-0.01L29.22,50.15z M32.81,72.3L11.63,60.01l0-0.18
	l18.09,2.79l0,0.57l1.37,0.79l0.46-0.26l1.62,8.37L32.81,72.3z M34.73,71.96l-0.66-0.38l-0.46,0.26l-1.62-8.37l0.46-0.26l0-0.96
	l8.42-5.15l0,0.06l0.47,0.27L34.73,71.96z M47.27,71.04l0,1.28l-5.8,3.33l-1.1-0.64L39,75.79l0,0.09l-3.57-2.07l0-1.45l-0.25-0.15
	l6.61-14.53l0.44,0.25l0.04-0.03l5.35,12.47l-0.84,0.48l0,1.58l1.37,0.79l0.04-0.03l-0.08-2.66L47.27,71.04z M60.84,64.51
	l-11.1,6.38l-1.1-0.64l-0.05,0.03l0.08,2.66l0.84-0.48l0-0.53l11.32-7.62L60.84,64.51z M60.85,63.77l-11.32,7.62l0-0.52l-1.37-0.79
	l-0.04,0.03l-5.35-12.47l0.57-0.33l17.51,6.22L60.85,63.77z M61.11,63.08l-17.51-6.22l0-0.98l16.78-5.44l0.93,0.54l0.54,11.67
	L61.11,63.08z M68.26,58.97l0,1.28l-4.94,2.84l-0.93-0.54l-0.54-11.67l0.12-0.07l6.96,7.78L68.26,58.97z M69.6,58.21l-0.21,0.12
	l-6.96-7.78l0.44-0.25l0-1.28l5.22-7.92l1.1,0.64l0.44-0.25L69.6,58.21z M69.63,38.83l-0.44-0.25l-0.54,0.31l-12.55-1.65l0-0.86
	l-0.16-0.09l12.86-10.12l0.84,0.49L69.63,38.83z"/>
</svg>
